solid FloorPlan
  facet normal 0.000000e+00 0.000000e+00 -1.000000e+00
    outer loop
      vertex 1.780000e+03 8.200000e+02 0.000000e+00
      vertex 3.350000e+03 6.200000e+02 0.000000e+00
      vertex 1.780000e+03 6.200000e+02 0.000000e+00
    endloop
  endfacet
  facet normal 0.000000e+00 0.000000e+00 -1.000000e+00
    outer loop
      vertex 1.780000e+03 8.200000e+02 0.000000e+00
      vertex 3.350000e+03 8.200000e+02 0.000000e+00
      vertex 3.350000e+03 6.200000e+02 0.000000e+00
    endloop
  endfacet
  facet normal 0.000000e+00 0.000000e+00 1.000000e+00
    outer loop
      vertex 1.780000e+03 8.200000e+02 3.000000e+03
      vertex 1.780000e+03 6.200000e+02 3.000000e+03
      vertex 3.350000e+03 6.200000e+02 3.000000e+03
    endloop
  endfacet
  facet normal -0.000000e+00 0.000000e+00 1.000000e+00
    outer loop
      vertex 1.780000e+03 8.200000e+02 3.000000e+03
      vertex 3.350000e+03 6.200000e+02 3.000000e+03
      vertex 3.350000e+03 8.200000e+02 3.000000e+03
    endloop
  endfacet
  facet normal -1.000000e+00 0.000000e+00 0.000000e+00
    outer loop
      vertex 1.780000e+03 8.200000e+02 0.000000e+00
      vertex 1.780000e+03 6.200000e+02 0.000000e+00
      vertex 1.780000e+03 6.200000e+02 3.000000e+03
    endloop
  endfacet
  facet normal -1.000000e+00 0.000000e+00 0.000000e+00
    outer loop
      vertex 1.780000e+03 8.200000e+02 0.000000e+00
      vertex 1.780000e+03 6.200000e+02 3.000000e+03
      vertex 1.780000e+03 8.200000e+02 3.000000e+03
    endloop
  endfacet
  facet normal 0.000000e+00 -1.000000e+00 0.000000e+00
    outer loop
      vertex 1.780000e+03 6.200000e+02 0.000000e+00
      vertex 3.350000e+03 6.200000e+02 0.000000e+00
      vertex 3.350000e+03 6.200000e+02 3.000000e+03
    endloop
  endfacet
  facet normal 0.000000e+00 -1.000000e+00 0.000000e+00
    outer loop
      vertex 1.780000e+03 6.200000e+02 0.000000e+00
      vertex 3.350000e+03 6.200000e+02 3.000000e+03
      vertex 1.780000e+03 6.200000e+02 3.000000e+03
    endloop
  endfacet
  facet normal 1.000000e+00 0.000000e+00 0.000000e+00
    outer loop
      vertex 3.350000e+03 6.200000e+02 0.000000e+00
      vertex 3.350000e+03 8.200000e+02 0.000000e+00
      vertex 3.350000e+03 8.200000e+02 3.000000e+03
    endloop
  endfacet
  facet normal 1.000000e+00 0.000000e+00 0.000000e+00
    outer loop
      vertex 3.350000e+03 6.200000e+02 0.000000e+00
      vertex 3.350000e+03 8.200000e+02 3.000000e+03
      vertex 3.350000e+03 6.200000e+02 3.000000e+03
    endloop
  endfacet
  facet normal 0.000000e+00 1.000000e+00 0.000000e+00
    outer loop
      vertex 3.350000e+03 8.200000e+02 0.000000e+00
      vertex 1.780000e+03 8.200000e+02 0.000000e+00
      vertex 1.780000e+03 8.200000e+02 3.000000e+03
    endloop
  endfacet
  facet normal 0.000000e+00 1.000000e+00 -0.000000e+00
    outer loop
      vertex 3.350000e+03 8.200000e+02 0.000000e+00
      vertex 1.780000e+03 8.200000e+02 3.000000e+03
      vertex 3.350000e+03 8.200000e+02 3.000000e+03
    endloop
  endfacet
  facet normal 0.000000e+00 0.000000e+00 -1.000000e+00
    outer loop
      vertex 1.750000e+03 3.360000e+03 0.000000e+00
      vertex 5.680000e+03 3.160000e+03 0.000000e+00
      vertex 1.750000e+03 3.160000e+03 0.000000e+00
    endloop
  endfacet
  facet normal 0.000000e+00 0.000000e+00 -1.000000e+00
    outer loop
      vertex 1.750000e+03 3.360000e+03 0.000000e+00
      vertex 5.680000e+03 3.360000e+03 0.000000e+00
      vertex 5.680000e+03 3.160000e+03 0.000000e+00
    endloop
  endfacet
  facet normal 0.000000e+00 0.000000e+00 1.000000e+00
    outer loop
      vertex 1.750000e+03 3.360000e+03 3.000000e+03
      vertex 1.750000e+03 3.160000e+03 3.000000e+03
      vertex 5.680000e+03 3.160000e+03 3.000000e+03
    endloop
  endfacet
  facet normal -0.000000e+00 0.000000e+00 1.000000e+00
    outer loop
      vertex 1.750000e+03 3.360000e+03 3.000000e+03
      vertex 5.680000e+03 3.160000e+03 3.000000e+03
      vertex 5.680000e+03 3.360000e+03 3.000000e+03
    endloop
  endfacet
  facet normal -1.000000e+00 0.000000e+00 0.000000e+00
    outer loop
      vertex 1.750000e+03 3.360000e+03 0.000000e+00
      vertex 1.750000e+03 3.160000e+03 0.000000e+00
      vertex 1.750000e+03 3.160000e+03 3.000000e+03
    endloop
  endfacet
  facet normal -1.000000e+00 0.000000e+00 0.000000e+00
    outer loop
      vertex 1.750000e+03 3.360000e+03 0.000000e+00
      vertex 1.750000e+03 3.160000e+03 3.000000e+03
      vertex 1.750000e+03 3.360000e+03 3.000000e+03
    endloop
  endfacet
  facet normal 0.000000e+00 -1.000000e+00 0.000000e+00
    outer loop
      vertex 1.750000e+03 3.160000e+03 0.000000e+00
      vertex 5.680000e+03 3.160000e+03 0.000000e+00
      vertex 5.680000e+03 3.160000e+03 3.000000e+03
    endloop
  endfacet
  facet normal 0.000000e+00 -1.000000e+00 0.000000e+00
    outer loop
      vertex 1.750000e+03 3.160000e+03 0.000000e+00
      vertex 5.680000e+03 3.160000e+03 3.000000e+03
      vertex 1.750000e+03 3.160000e+03 3.000000e+03
    endloop
  endfacet
  facet normal 1.000000e+00 0.000000e+00 0.000000e+00
    outer loop
      vertex 5.680000e+03 3.160000e+03 0.000000e+00
      vertex 5.680000e+03 3.360000e+03 0.000000e+00
      vertex 5.680000e+03 3.360000e+03 3.000000e+03
    endloop
  endfacet
  facet normal 1.000000e+00 0.000000e+00 0.000000e+00
    outer loop
      vertex 5.680000e+03 3.160000e+03 0.000000e+00
      vertex 5.680000e+03 3.360000e+03 3.000000e+03
      vertex 5.680000e+03 3.160000e+03 3.000000e+03
    endloop
  endfacet
  facet normal 0.000000e+00 1.000000e+00 0.000000e+00
    outer loop
      vertex 5.680000e+03 3.360000e+03 0.000000e+00
      vertex 1.750000e+03 3.360000e+03 0.000000e+00
      vertex 1.750000e+03 3.360000e+03 3.000000e+03
    endloop
  endfacet
  facet normal 0.000000e+00 1.000000e+00 -0.000000e+00
    outer loop
      vertex 5.680000e+03 3.360000e+03 0.000000e+00
      vertex 1.750000e+03 3.360000e+03 3.000000e+03
      vertex 5.680000e+03 3.360000e+03 3.000000e+03
    endloop
  endfacet
  facet normal -0.000000e+00 0.000000e+00 -1.000000e+00
    outer loop
      vertex 1.850000e+03 7.580000e+03 0.000000e+00
      vertex 1.650000e+03 2.780000e+03 0.000000e+00
      vertex 1.650000e+03 7.580000e+03 0.000000e+00
    endloop
  endfacet
  facet normal 0.000000e+00 -0.000000e+00 -1.000000e+00
    outer loop
      vertex 1.850000e+03 7.580000e+03 0.000000e+00
      vertex 1.850000e+03 2.780000e+03 0.000000e+00
      vertex 1.650000e+03 2.780000e+03 0.000000e+00
    endloop
  endfacet
  facet normal 0.000000e+00 0.000000e+00 1.000000e+00
    outer loop
      vertex 1.850000e+03 7.580000e+03 3.000000e+03
      vertex 1.650000e+03 7.580000e+03 3.000000e+03
      vertex 1.650000e+03 2.780000e+03 3.000000e+03
    endloop
  endfacet
  facet normal 0.000000e+00 0.000000e+00 1.000000e+00
    outer loop
      vertex 1.850000e+03 7.580000e+03 3.000000e+03
      vertex 1.650000e+03 2.780000e+03 3.000000e+03
      vertex 1.850000e+03 2.780000e+03 3.000000e+03
    endloop
  endfacet
  facet normal 0.000000e+00 1.000000e+00 0.000000e+00
    outer loop
      vertex 1.850000e+03 7.580000e+03 0.000000e+00
      vertex 1.650000e+03 7.580000e+03 0.000000e+00
      vertex 1.650000e+03 7.580000e+03 3.000000e+03
    endloop
  endfacet
  facet normal 0.000000e+00 1.000000e+00 -0.000000e+00
    outer loop
      vertex 1.850000e+03 7.580000e+03 0.000000e+00
      vertex 1.650000e+03 7.580000e+03 3.000000e+03
      vertex 1.850000e+03 7.580000e+03 3.000000e+03
    endloop
  endfacet
  facet normal -1.000000e+00 0.000000e+00 0.000000e+00
    outer loop
      vertex 1.650000e+03 7.580000e+03 0.000000e+00
      vertex 1.650000e+03 2.780000e+03 0.000000e+00
      vertex 1.650000e+03 2.780000e+03 3.000000e+03
    endloop
  endfacet
  facet normal -1.000000e+00 0.000000e+00 0.000000e+00
    outer loop
      vertex 1.650000e+03 7.580000e+03 0.000000e+00
      vertex 1.650000e+03 2.780000e+03 3.000000e+03
      vertex 1.650000e+03 7.580000e+03 3.000000e+03
    endloop
  endfacet
  facet normal 0.000000e+00 -1.000000e+00 0.000000e+00
    outer loop
      vertex 1.650000e+03 2.780000e+03 0.000000e+00
      vertex 1.850000e+03 2.780000e+03 0.000000e+00
      vertex 1.850000e+03 2.780000e+03 3.000000e+03
    endloop
  endfacet
  facet normal 0.000000e+00 -1.000000e+00 0.000000e+00
    outer loop
      vertex 1.650000e+03 2.780000e+03 0.000000e+00
      vertex 1.850000e+03 2.780000e+03 3.000000e+03
      vertex 1.650000e+03 2.780000e+03 3.000000e+03
    endloop
  endfacet
  facet normal 1.000000e+00 0.000000e+00 0.000000e+00
    outer loop
      vertex 1.850000e+03 2.780000e+03 0.000000e+00
      vertex 1.850000e+03 7.580000e+03 0.000000e+00
      vertex 1.850000e+03 7.580000e+03 3.000000e+03
    endloop
  endfacet
  facet normal 1.000000e+00 0.000000e+00 0.000000e+00
    outer loop
      vertex 1.850000e+03 2.780000e+03 0.000000e+00
      vertex 1.850000e+03 7.580000e+03 3.000000e+03
      vertex 1.850000e+03 2.780000e+03 3.000000e+03
    endloop
  endfacet
  facet normal 0.000000e+00 0.000000e+00 -1.000000e+00
    outer loop
      vertex 5.000000e+03 6.140000e+03 0.000000e+00
      vertex 1.075000e+04 5.940000e+03 0.000000e+00
      vertex 5.000000e+03 5.940000e+03 0.000000e+00
    endloop
  endfacet
  facet normal 0.000000e+00 0.000000e+00 -1.000000e+00
    outer loop
      vertex 5.000000e+03 6.140000e+03 0.000000e+00
      vertex 1.075000e+04 6.140000e+03 0.000000e+00
      vertex 1.075000e+04 5.940000e+03 0.000000e+00
    endloop
  endfacet
  facet normal 0.000000e+00 0.000000e+00 1.000000e+00
    outer loop
      vertex 5.000000e+03 6.140000e+03 3.000000e+03
      vertex 5.000000e+03 5.940000e+03 3.000000e+03
      vertex 1.075000e+04 5.940000e+03 3.000000e+03
    endloop
  endfacet
  facet normal -0.000000e+00 0.000000e+00 1.000000e+00
    outer loop
      vertex 5.000000e+03 6.140000e+03 3.000000e+03
      vertex 1.075000e+04 5.940000e+03 3.000000e+03
      vertex 1.075000e+04 6.140000e+03 3.000000e+03
    endloop
  endfacet
  facet normal -1.000000e+00 0.000000e+00 0.000000e+00
    outer loop
      vertex 5.000000e+03 6.140000e+03 0.000000e+00
      vertex 5.000000e+03 5.940000e+03 0.000000e+00
      vertex 5.000000e+03 5.940000e+03 3.000000e+03
    endloop
  endfacet
  facet normal -1.000000e+00 0.000000e+00 0.000000e+00
    outer loop
      vertex 5.000000e+03 6.140000e+03 0.000000e+00
      vertex 5.000000e+03 5.940000e+03 3.000000e+03
      vertex 5.000000e+03 6.140000e+03 3.000000e+03
    endloop
  endfacet
  facet normal 0.000000e+00 -1.000000e+00 0.000000e+00
    outer loop
      vertex 5.000000e+03 5.940000e+03 0.000000e+00
      vertex 1.075000e+04 5.940000e+03 0.000000e+00
      vertex 1.075000e+04 5.940000e+03 3.000000e+03
    endloop
  endfacet
  facet normal 0.000000e+00 -1.000000e+00 0.000000e+00
    outer loop
      vertex 5.000000e+03 5.940000e+03 0.000000e+00
      vertex 1.075000e+04 5.940000e+03 3.000000e+03
      vertex 5.000000e+03 5.940000e+03 3.000000e+03
    endloop
  endfacet
  facet normal 1.000000e+00 0.000000e+00 0.000000e+00
    outer loop
      vertex 1.075000e+04 5.940000e+03 0.000000e+00
      vertex 1.075000e+04 6.140000e+03 0.000000e+00
      vertex 1.075000e+04 6.140000e+03 3.000000e+03
    endloop
  endfacet
  facet normal 1.000000e+00 0.000000e+00 0.000000e+00
    outer loop
      vertex 1.075000e+04 5.940000e+03 0.000000e+00
      vertex 1.075000e+04 6.140000e+03 3.000000e+03
      vertex 1.075000e+04 5.940000e+03 3.000000e+03
    endloop
  endfacet
  facet normal 0.000000e+00 1.000000e+00 0.000000e+00
    outer loop
      vertex 1.075000e+04 6.140000e+03 0.000000e+00
      vertex 5.000000e+03 6.140000e+03 0.000000e+00
      vertex 5.000000e+03 6.140000e+03 3.000000e+03
    endloop
  endfacet
  facet normal 0.000000e+00 1.000000e+00 -0.000000e+00
    outer loop
      vertex 1.075000e+04 6.140000e+03 0.000000e+00
      vertex 5.000000e+03 6.140000e+03 3.000000e+03
      vertex 1.075000e+04 6.140000e+03 3.000000e+03
    endloop
  endfacet
  facet normal -0.000000e+00 0.000000e+00 -1.000000e+00
    outer loop
      vertex 1.087000e+04 3.790000e+03 0.000000e+00
      vertex 1.067000e+04 7.400000e+02 0.000000e+00
      vertex 1.067000e+04 3.790000e+03 0.000000e+00
    endloop
  endfacet
  facet normal 0.000000e+00 -0.000000e+00 -1.000000e+00
    outer loop
      vertex 1.087000e+04 3.790000e+03 0.000000e+00
      vertex 1.087000e+04 7.400000e+02 0.000000e+00
      vertex 1.067000e+04 7.400000e+02 0.000000e+00
    endloop
  endfacet
  facet normal 0.000000e+00 0.000000e+00 1.000000e+00
    outer loop
      vertex 1.087000e+04 3.790000e+03 3.000000e+03
      vertex 1.067000e+04 3.790000e+03 3.000000e+03
      vertex 1.067000e+04 7.400000e+02 3.000000e+03
    endloop
  endfacet
  facet normal 0.000000e+00 0.000000e+00 1.000000e+00
    outer loop
      vertex 1.087000e+04 3.790000e+03 3.000000e+03
      vertex 1.067000e+04 7.400000e+02 3.000000e+03
      vertex 1.087000e+04 7.400000e+02 3.000000e+03
    endloop
  endfacet
  facet normal 0.000000e+00 1.000000e+00 0.000000e+00
    outer loop
      vertex 1.087000e+04 3.790000e+03 0.000000e+00
      vertex 1.067000e+04 3.790000e+03 0.000000e+00
      vertex 1.067000e+04 3.790000e+03 3.000000e+03
    endloop
  endfacet
  facet normal 0.000000e+00 1.000000e+00 -0.000000e+00
    outer loop
      vertex 1.087000e+04 3.790000e+03 0.000000e+00
      vertex 1.067000e+04 3.790000e+03 3.000000e+03
      vertex 1.087000e+04 3.790000e+03 3.000000e+03
    endloop
  endfacet
  facet normal -1.000000e+00 0.000000e+00 0.000000e+00
    outer loop
      vertex 1.067000e+04 3.790000e+03 0.000000e+00
      vertex 1.067000e+04 7.400000e+02 0.000000e+00
      vertex 1.067000e+04 7.400000e+02 3.000000e+03
    endloop
  endfacet
  facet normal -1.000000e+00 0.000000e+00 0.000000e+00
    outer loop
      vertex 1.067000e+04 3.790000e+03 0.000000e+00
      vertex 1.067000e+04 7.400000e+02 3.000000e+03
      vertex 1.067000e+04 3.790000e+03 3.000000e+03
    endloop
  endfacet
  facet normal 0.000000e+00 -1.000000e+00 0.000000e+00
    outer loop
      vertex 1.067000e+04 7.400000e+02 0.000000e+00
      vertex 1.087000e+04 7.400000e+02 0.000000e+00
      vertex 1.087000e+04 7.400000e+02 3.000000e+03
    endloop
  endfacet
  facet normal 0.000000e+00 -1.000000e+00 0.000000e+00
    outer loop
      vertex 1.067000e+04 7.400000e+02 0.000000e+00
      vertex 1.087000e+04 7.400000e+02 3.000000e+03
      vertex 1.067000e+04 7.400000e+02 3.000000e+03
    endloop
  endfacet
  facet normal 1.000000e+00 0.000000e+00 0.000000e+00
    outer loop
      vertex 1.087000e+04 7.400000e+02 0.000000e+00
      vertex 1.087000e+04 3.790000e+03 0.000000e+00
      vertex 1.087000e+04 3.790000e+03 3.000000e+03
    endloop
  endfacet
  facet normal 1.000000e+00 0.000000e+00 0.000000e+00
    outer loop
      vertex 1.087000e+04 7.400000e+02 0.000000e+00
      vertex 1.087000e+04 3.790000e+03 3.000000e+03
      vertex 1.087000e+04 7.400000e+02 3.000000e+03
    endloop
  endfacet
  facet normal -0.000000e+00 0.000000e+00 -1.000000e+00
    outer loop
      vertex 6.820000e+03 3.260000e+03 0.000000e+00
      vertex 6.620000e+03 7.200000e+02 0.000000e+00
      vertex 6.620000e+03 3.260000e+03 0.000000e+00
    endloop
  endfacet
  facet normal 0.000000e+00 -0.000000e+00 -1.000000e+00
    outer loop
      vertex 6.820000e+03 3.260000e+03 0.000000e+00
      vertex 6.820000e+03 7.200000e+02 0.000000e+00
      vertex 6.620000e+03 7.200000e+02 0.000000e+00
    endloop
  endfacet
  facet normal 0.000000e+00 0.000000e+00 1.000000e+00
    outer loop
      vertex 6.820000e+03 3.260000e+03 3.000000e+03
      vertex 6.620000e+03 3.260000e+03 3.000000e+03
      vertex 6.620000e+03 7.200000e+02 3.000000e+03
    endloop
  endfacet
  facet normal 0.000000e+00 0.000000e+00 1.000000e+00
    outer loop
      vertex 6.820000e+03 3.260000e+03 3.000000e+03
      vertex 6.620000e+03 7.200000e+02 3.000000e+03
      vertex 6.820000e+03 7.200000e+02 3.000000e+03
    endloop
  endfacet
  facet normal 0.000000e+00 1.000000e+00 0.000000e+00
    outer loop
      vertex 6.820000e+03 3.260000e+03 0.000000e+00
      vertex 6.620000e+03 3.260000e+03 0.000000e+00
      vertex 6.620000e+03 3.260000e+03 3.000000e+03
    endloop
  endfacet
  facet normal 0.000000e+00 1.000000e+00 -0.000000e+00
    outer loop
      vertex 6.820000e+03 3.260000e+03 0.000000e+00
      vertex 6.620000e+03 3.260000e+03 3.000000e+03
      vertex 6.820000e+03 3.260000e+03 3.000000e+03
    endloop
  endfacet
  facet normal -1.000000e+00 0.000000e+00 0.000000e+00
    outer loop
      vertex 6.620000e+03 3.260000e+03 0.000000e+00
      vertex 6.620000e+03 7.200000e+02 0.000000e+00
      vertex 6.620000e+03 7.200000e+02 3.000000e+03
    endloop
  endfacet
  facet normal -1.000000e+00 0.000000e+00 0.000000e+00
    outer loop
      vertex 6.620000e+03 3.260000e+03 0.000000e+00
      vertex 6.620000e+03 7.200000e+02 3.000000e+03
      vertex 6.620000e+03 3.260000e+03 3.000000e+03
    endloop
  endfacet
  facet normal 0.000000e+00 -1.000000e+00 0.000000e+00
    outer loop
      vertex 6.620000e+03 7.200000e+02 0.000000e+00
      vertex 6.820000e+03 7.200000e+02 0.000000e+00
      vertex 6.820000e+03 7.200000e+02 3.000000e+03
    endloop
  endfacet
  facet normal 0.000000e+00 -1.000000e+00 0.000000e+00
    outer loop
      vertex 6.620000e+03 7.200000e+02 0.000000e+00
      vertex 6.820000e+03 7.200000e+02 3.000000e+03
      vertex 6.620000e+03 7.200000e+02 3.000000e+03
    endloop
  endfacet
  facet normal 1.000000e+00 0.000000e+00 0.000000e+00
    outer loop
      vertex 6.820000e+03 7.200000e+02 0.000000e+00
      vertex 6.820000e+03 3.260000e+03 0.000000e+00
      vertex 6.820000e+03 3.260000e+03 3.000000e+03
    endloop
  endfacet
  facet normal 1.000000e+00 0.000000e+00 0.000000e+00
    outer loop
      vertex 6.820000e+03 7.200000e+02 0.000000e+00
      vertex 6.820000e+03 3.260000e+03 3.000000e+03
      vertex 6.820000e+03 7.200000e+02 3.000000e+03
    endloop
  endfacet
  facet normal 0.000000e+00 0.000000e+00 -1.000000e+00
    outer loop
      vertex 4.150000e+03 7.690000e+03 0.000000e+00
      vertex 4.980000e+03 7.490000e+03 0.000000e+00
      vertex 4.150000e+03 7.490000e+03 0.000000e+00
    endloop
  endfacet
  facet normal 0.000000e+00 0.000000e+00 -1.000000e+00
    outer loop
      vertex 4.150000e+03 7.690000e+03 0.000000e+00
      vertex 4.980000e+03 7.690000e+03 0.000000e+00
      vertex 4.980000e+03 7.490000e+03 0.000000e+00
    endloop
  endfacet
  facet normal 0.000000e+00 0.000000e+00 1.000000e+00
    outer loop
      vertex 4.150000e+03 7.690000e+03 3.000000e+03
      vertex 4.150000e+03 7.490000e+03 3.000000e+03
      vertex 4.980000e+03 7.490000e+03 3.000000e+03
    endloop
  endfacet
  facet normal -0.000000e+00 0.000000e+00 1.000000e+00
    outer loop
      vertex 4.150000e+03 7.690000e+03 3.000000e+03
      vertex 4.980000e+03 7.490000e+03 3.000000e+03
      vertex 4.980000e+03 7.690000e+03 3.000000e+03
    endloop
  endfacet
  facet normal -1.000000e+00 0.000000e+00 0.000000e+00
    outer loop
      vertex 4.150000e+03 7.690000e+03 0.000000e+00
      vertex 4.150000e+03 7.490000e+03 0.000000e+00
      vertex 4.150000e+03 7.490000e+03 3.000000e+03
    endloop
  endfacet
  facet normal -1.000000e+00 0.000000e+00 0.000000e+00
    outer loop
      vertex 4.150000e+03 7.690000e+03 0.000000e+00
      vertex 4.150000e+03 7.490000e+03 3.000000e+03
      vertex 4.150000e+03 7.690000e+03 3.000000e+03
    endloop
  endfacet
  facet normal 0.000000e+00 -1.000000e+00 0.000000e+00
    outer loop
      vertex 4.150000e+03 7.490000e+03 0.000000e+00
      vertex 4.980000e+03 7.490000e+03 0.000000e+00
      vertex 4.980000e+03 7.490000e+03 3.000000e+03
    endloop
  endfacet
  facet normal 0.000000e+00 -1.000000e+00 0.000000e+00
    outer loop
      vertex 4.150000e+03 7.490000e+03 0.000000e+00
      vertex 4.980000e+03 7.490000e+03 3.000000e+03
      vertex 4.150000e+03 7.490000e+03 3.000000e+03
    endloop
  endfacet
  facet normal 1.000000e+00 0.000000e+00 0.000000e+00
    outer loop
      vertex 4.980000e+03 7.490000e+03 0.000000e+00
      vertex 4.980000e+03 7.690000e+03 0.000000e+00
      vertex 4.980000e+03 7.690000e+03 3.000000e+03
    endloop
  endfacet
  facet normal 1.000000e+00 0.000000e+00 0.000000e+00
    outer loop
      vertex 4.980000e+03 7.490000e+03 0.000000e+00
      vertex 4.980000e+03 7.690000e+03 3.000000e+03
      vertex 4.980000e+03 7.490000e+03 3.000000e+03
    endloop
  endfacet
  facet normal 0.000000e+00 1.000000e+00 0.000000e+00
    outer loop
      vertex 4.980000e+03 7.690000e+03 0.000000e+00
      vertex 4.150000e+03 7.690000e+03 0.000000e+00
      vertex 4.150000e+03 7.690000e+03 3.000000e+03
    endloop
  endfacet
  facet normal 0.000000e+00 1.000000e+00 -0.000000e+00
    outer loop
      vertex 4.980000e+03 7.690000e+03 0.000000e+00
      vertex 4.150000e+03 7.690000e+03 3.000000e+03
      vertex 4.980000e+03 7.690000e+03 3.000000e+03
    endloop
  endfacet
  facet normal 0.000000e+00 0.000000e+00 -1.000000e+00
    outer loop
      vertex 6.090000e+03 8.200000e+02 0.000000e+00
      vertex 6.650000e+03 6.200000e+02 0.000000e+00
      vertex 6.090000e+03 6.200000e+02 0.000000e+00
    endloop
  endfacet
  facet normal 0.000000e+00 0.000000e+00 -1.000000e+00
    outer loop
      vertex 6.090000e+03 8.200000e+02 0.000000e+00
      vertex 6.650000e+03 8.200000e+02 0.000000e+00
      vertex 6.650000e+03 6.200000e+02 0.000000e+00
    endloop
  endfacet
  facet normal 0.000000e+00 0.000000e+00 1.000000e+00
    outer loop
      vertex 6.090000e+03 8.200000e+02 3.000000e+03
      vertex 6.090000e+03 6.200000e+02 3.000000e+03
      vertex 6.650000e+03 6.200000e+02 3.000000e+03
    endloop
  endfacet
  facet normal -0.000000e+00 0.000000e+00 1.000000e+00
    outer loop
      vertex 6.090000e+03 8.200000e+02 3.000000e+03
      vertex 6.650000e+03 6.200000e+02 3.000000e+03
      vertex 6.650000e+03 8.200000e+02 3.000000e+03
    endloop
  endfacet
  facet normal -1.000000e+00 0.000000e+00 0.000000e+00
    outer loop
      vertex 6.090000e+03 8.200000e+02 0.000000e+00
      vertex 6.090000e+03 6.200000e+02 0.000000e+00
      vertex 6.090000e+03 6.200000e+02 3.000000e+03
    endloop
  endfacet
  facet normal -1.000000e+00 0.000000e+00 0.000000e+00
    outer loop
      vertex 6.090000e+03 8.200000e+02 0.000000e+00
      vertex 6.090000e+03 6.200000e+02 3.000000e+03
      vertex 6.090000e+03 8.200000e+02 3.000000e+03
    endloop
  endfacet
  facet normal 0.000000e+00 -1.000000e+00 0.000000e+00
    outer loop
      vertex 6.090000e+03 6.200000e+02 0.000000e+00
      vertex 6.650000e+03 6.200000e+02 0.000000e+00
      vertex 6.650000e+03 6.200000e+02 3.000000e+03
    endloop
  endfacet
  facet normal 0.000000e+00 -1.000000e+00 0.000000e+00
    outer loop
      vertex 6.090000e+03 6.200000e+02 0.000000e+00
      vertex 6.650000e+03 6.200000e+02 3.000000e+03
      vertex 6.090000e+03 6.200000e+02 3.000000e+03
    endloop
  endfacet
  facet normal 1.000000e+00 0.000000e+00 0.000000e+00
    outer loop
      vertex 6.650000e+03 6.200000e+02 0.000000e+00
      vertex 6.650000e+03 8.200000e+02 0.000000e+00
      vertex 6.650000e+03 8.200000e+02 3.000000e+03
    endloop
  endfacet
  facet normal 1.000000e+00 0.000000e+00 0.000000e+00
    outer loop
      vertex 6.650000e+03 6.200000e+02 0.000000e+00
      vertex 6.650000e+03 8.200000e+02 3.000000e+03
      vertex 6.650000e+03 6.200000e+02 3.000000e+03
    endloop
  endfacet
  facet normal 0.000000e+00 1.000000e+00 0.000000e+00
    outer loop
      vertex 6.650000e+03 8.200000e+02 0.000000e+00
      vertex 6.090000e+03 8.200000e+02 0.000000e+00
      vertex 6.090000e+03 8.200000e+02 3.000000e+03
    endloop
  endfacet
  facet normal 0.000000e+00 1.000000e+00 -0.000000e+00
    outer loop
      vertex 6.650000e+03 8.200000e+02 0.000000e+00
      vertex 6.090000e+03 8.200000e+02 3.000000e+03
      vertex 6.650000e+03 8.200000e+02 3.000000e+03
    endloop
  endfacet
  facet normal 0.000000e+00 0.000000e+00 -1.000000e+00
    outer loop
      vertex 5.200000e+03 8.200000e+02 0.000000e+00
      vertex 5.760000e+03 6.200000e+02 0.000000e+00
      vertex 5.200000e+03 6.200000e+02 0.000000e+00
    endloop
  endfacet
  facet normal 0.000000e+00 0.000000e+00 -1.000000e+00
    outer loop
      vertex 5.200000e+03 8.200000e+02 0.000000e+00
      vertex 5.760000e+03 8.200000e+02 0.000000e+00
      vertex 5.760000e+03 6.200000e+02 0.000000e+00
    endloop
  endfacet
  facet normal 0.000000e+00 0.000000e+00 1.000000e+00
    outer loop
      vertex 5.200000e+03 8.200000e+02 3.000000e+03
      vertex 5.200000e+03 6.200000e+02 3.000000e+03
      vertex 5.760000e+03 6.200000e+02 3.000000e+03
    endloop
  endfacet
  facet normal -0.000000e+00 0.000000e+00 1.000000e+00
    outer loop
      vertex 5.200000e+03 8.200000e+02 3.000000e+03
      vertex 5.760000e+03 6.200000e+02 3.000000e+03
      vertex 5.760000e+03 8.200000e+02 3.000000e+03
    endloop
  endfacet
  facet normal -1.000000e+00 0.000000e+00 0.000000e+00
    outer loop
      vertex 5.200000e+03 8.200000e+02 0.000000e+00
      vertex 5.200000e+03 6.200000e+02 0.000000e+00
      vertex 5.200000e+03 6.200000e+02 3.000000e+03
    endloop
  endfacet
  facet normal -1.000000e+00 0.000000e+00 0.000000e+00
    outer loop
      vertex 5.200000e+03 8.200000e+02 0.000000e+00
      vertex 5.200000e+03 6.200000e+02 3.000000e+03
      vertex 5.200000e+03 8.200000e+02 3.000000e+03
    endloop
  endfacet
  facet normal 0.000000e+00 -1.000000e+00 0.000000e+00
    outer loop
      vertex 5.200000e+03 6.200000e+02 0.000000e+00
      vertex 5.760000e+03 6.200000e+02 0.000000e+00
      vertex 5.760000e+03 6.200000e+02 3.000000e+03
    endloop
  endfacet
  facet normal 0.000000e+00 -1.000000e+00 0.000000e+00
    outer loop
      vertex 5.200000e+03 6.200000e+02 0.000000e+00
      vertex 5.760000e+03 6.200000e+02 3.000000e+03
      vertex 5.200000e+03 6.200000e+02 3.000000e+03
    endloop
  endfacet
  facet normal 1.000000e+00 0.000000e+00 0.000000e+00
    outer loop
      vertex 5.760000e+03 6.200000e+02 0.000000e+00
      vertex 5.760000e+03 8.200000e+02 0.000000e+00
      vertex 5.760000e+03 8.200000e+02 3.000000e+03
    endloop
  endfacet
  facet normal 1.000000e+00 0.000000e+00 0.000000e+00
    outer loop
      vertex 5.760000e+03 6.200000e+02 0.000000e+00
      vertex 5.760000e+03 8.200000e+02 3.000000e+03
      vertex 5.760000e+03 6.200000e+02 3.000000e+03
    endloop
  endfacet
  facet normal 0.000000e+00 1.000000e+00 0.000000e+00
    outer loop
      vertex 5.760000e+03 8.200000e+02 0.000000e+00
      vertex 5.200000e+03 8.200000e+02 0.000000e+00
      vertex 5.200000e+03 8.200000e+02 3.000000e+03
    endloop
  endfacet
  facet normal 0.000000e+00 1.000000e+00 -0.000000e+00
    outer loop
      vertex 5.760000e+03 8.200000e+02 0.000000e+00
      vertex 5.200000e+03 8.200000e+02 3.000000e+03
      vertex 5.760000e+03 8.200000e+02 3.000000e+03
    endloop
  endfacet
  facet normal 0.000000e+00 0.000000e+00 -1.000000e+00
    outer loop
      vertex 6.970000e+03 8.200000e+02 0.000000e+00
      vertex 7.530000e+03 6.200000e+02 0.000000e+00
      vertex 6.970000e+03 6.200000e+02 0.000000e+00
    endloop
  endfacet
  facet normal 0.000000e+00 0.000000e+00 -1.000000e+00
    outer loop
      vertex 6.970000e+03 8.200000e+02 0.000000e+00
      vertex 7.530000e+03 8.200000e+02 0.000000e+00
      vertex 7.530000e+03 6.200000e+02 0.000000e+00
    endloop
  endfacet
  facet normal 0.000000e+00 0.000000e+00 1.000000e+00
    outer loop
      vertex 6.970000e+03 8.200000e+02 3.000000e+03
      vertex 6.970000e+03 6.200000e+02 3.000000e+03
      vertex 7.530000e+03 6.200000e+02 3.000000e+03
    endloop
  endfacet
  facet normal -0.000000e+00 0.000000e+00 1.000000e+00
    outer loop
      vertex 6.970000e+03 8.200000e+02 3.000000e+03
      vertex 7.530000e+03 6.200000e+02 3.000000e+03
      vertex 7.530000e+03 8.200000e+02 3.000000e+03
    endloop
  endfacet
  facet normal -1.000000e+00 0.000000e+00 0.000000e+00
    outer loop
      vertex 6.970000e+03 8.200000e+02 0.000000e+00
      vertex 6.970000e+03 6.200000e+02 0.000000e+00
      vertex 6.970000e+03 6.200000e+02 3.000000e+03
    endloop
  endfacet
  facet normal -1.000000e+00 0.000000e+00 0.000000e+00
    outer loop
      vertex 6.970000e+03 8.200000e+02 0.000000e+00
      vertex 6.970000e+03 6.200000e+02 3.000000e+03
      vertex 6.970000e+03 8.200000e+02 3.000000e+03
    endloop
  endfacet
  facet normal 0.000000e+00 -1.000000e+00 0.000000e+00
    outer loop
      vertex 6.970000e+03 6.200000e+02 0.000000e+00
      vertex 7.530000e+03 6.200000e+02 0.000000e+00
      vertex 7.530000e+03 6.200000e+02 3.000000e+03
    endloop
  endfacet
  facet normal 0.000000e+00 -1.000000e+00 0.000000e+00
    outer loop
      vertex 6.970000e+03 6.200000e+02 0.000000e+00
      vertex 7.530000e+03 6.200000e+02 3.000000e+03
      vertex 6.970000e+03 6.200000e+02 3.000000e+03
    endloop
  endfacet
  facet normal 1.000000e+00 0.000000e+00 0.000000e+00
    outer loop
      vertex 7.530000e+03 6.200000e+02 0.000000e+00
      vertex 7.530000e+03 8.200000e+02 0.000000e+00
      vertex 7.530000e+03 8.200000e+02 3.000000e+03
    endloop
  endfacet
  facet normal 1.000000e+00 0.000000e+00 0.000000e+00
    outer loop
      vertex 7.530000e+03 6.200000e+02 0.000000e+00
      vertex 7.530000e+03 8.200000e+02 3.000000e+03
      vertex 7.530000e+03 6.200000e+02 3.000000e+03
    endloop
  endfacet
  facet normal 0.000000e+00 1.000000e+00 0.000000e+00
    outer loop
      vertex 7.530000e+03 8.200000e+02 0.000000e+00
      vertex 6.970000e+03 8.200000e+02 0.000000e+00
      vertex 6.970000e+03 8.200000e+02 3.000000e+03
    endloop
  endfacet
  facet normal 0.000000e+00 1.000000e+00 -0.000000e+00
    outer loop
      vertex 7.530000e+03 8.200000e+02 0.000000e+00
      vertex 6.970000e+03 8.200000e+02 3.000000e+03
      vertex 7.530000e+03 8.200000e+02 3.000000e+03
    endloop
  endfacet
  facet normal -0.000000e+00 0.000000e+00 -1.000000e+00
    outer loop
      vertex 5.090000e+03 6.380000e+03 0.000000e+00
      vertex 4.890000e+03 6.050000e+03 0.000000e+00
      vertex 4.890000e+03 6.380000e+03 0.000000e+00
    endloop
  endfacet
  facet normal 0.000000e+00 -0.000000e+00 -1.000000e+00
    outer loop
      vertex 5.090000e+03 6.380000e+03 0.000000e+00
      vertex 5.090000e+03 6.050000e+03 0.000000e+00
      vertex 4.890000e+03 6.050000e+03 0.000000e+00
    endloop
  endfacet
  facet normal 0.000000e+00 0.000000e+00 1.000000e+00
    outer loop
      vertex 5.090000e+03 6.380000e+03 3.000000e+03
      vertex 4.890000e+03 6.380000e+03 3.000000e+03
      vertex 4.890000e+03 6.050000e+03 3.000000e+03
    endloop
  endfacet
  facet normal 0.000000e+00 0.000000e+00 1.000000e+00
    outer loop
      vertex 5.090000e+03 6.380000e+03 3.000000e+03
      vertex 4.890000e+03 6.050000e+03 3.000000e+03
      vertex 5.090000e+03 6.050000e+03 3.000000e+03
    endloop
  endfacet
  facet normal 0.000000e+00 1.000000e+00 0.000000e+00
    outer loop
      vertex 5.090000e+03 6.380000e+03 0.000000e+00
      vertex 4.890000e+03 6.380000e+03 0.000000e+00
      vertex 4.890000e+03 6.380000e+03 3.000000e+03
    endloop
  endfacet
  facet normal 0.000000e+00 1.000000e+00 -0.000000e+00
    outer loop
      vertex 5.090000e+03 6.380000e+03 0.000000e+00
      vertex 4.890000e+03 6.380000e+03 3.000000e+03
      vertex 5.090000e+03 6.380000e+03 3.000000e+03
    endloop
  endfacet
  facet normal -1.000000e+00 0.000000e+00 0.000000e+00
    outer loop
      vertex 4.890000e+03 6.380000e+03 0.000000e+00
      vertex 4.890000e+03 6.050000e+03 0.000000e+00
      vertex 4.890000e+03 6.050000e+03 3.000000e+03
    endloop
  endfacet
  facet normal -1.000000e+00 0.000000e+00 0.000000e+00
    outer loop
      vertex 4.890000e+03 6.380000e+03 0.000000e+00
      vertex 4.890000e+03 6.050000e+03 3.000000e+03
      vertex 4.890000e+03 6.380000e+03 3.000000e+03
    endloop
  endfacet
  facet normal 0.000000e+00 -1.000000e+00 0.000000e+00
    outer loop
      vertex 4.890000e+03 6.050000e+03 0.000000e+00
      vertex 5.090000e+03 6.050000e+03 0.000000e+00
      vertex 5.090000e+03 6.050000e+03 3.000000e+03
    endloop
  endfacet
  facet normal 0.000000e+00 -1.000000e+00 0.000000e+00
    outer loop
      vertex 4.890000e+03 6.050000e+03 0.000000e+00
      vertex 5.090000e+03 6.050000e+03 3.000000e+03
      vertex 4.890000e+03 6.050000e+03 3.000000e+03
    endloop
  endfacet
  facet normal 1.000000e+00 0.000000e+00 0.000000e+00
    outer loop
      vertex 5.090000e+03 6.050000e+03 0.000000e+00
      vertex 5.090000e+03 6.380000e+03 0.000000e+00
      vertex 5.090000e+03 6.380000e+03 3.000000e+03
    endloop
  endfacet
  facet normal 1.000000e+00 0.000000e+00 0.000000e+00
    outer loop
      vertex 5.090000e+03 6.050000e+03 0.000000e+00
      vertex 5.090000e+03 6.380000e+03 3.000000e+03
      vertex 5.090000e+03 6.050000e+03 3.000000e+03
    endloop
  endfacet
  facet normal 0.000000e+00 0.000000e+00 -1.000000e+00
    outer loop
      vertex 8.980000e+03 3.360000e+03 0.000000e+00
      vertex 9.540000e+03 3.160000e+03 0.000000e+00
      vertex 8.980000e+03 3.160000e+03 0.000000e+00
    endloop
  endfacet
  facet normal 0.000000e+00 0.000000e+00 -1.000000e+00
    outer loop
      vertex 8.980000e+03 3.360000e+03 0.000000e+00
      vertex 9.540000e+03 3.360000e+03 0.000000e+00
      vertex 9.540000e+03 3.160000e+03 0.000000e+00
    endloop
  endfacet
  facet normal 0.000000e+00 0.000000e+00 1.000000e+00
    outer loop
      vertex 8.980000e+03 3.360000e+03 3.000000e+03
      vertex 8.980000e+03 3.160000e+03 3.000000e+03
      vertex 9.540000e+03 3.160000e+03 3.000000e+03
    endloop
  endfacet
  facet normal -0.000000e+00 0.000000e+00 1.000000e+00
    outer loop
      vertex 8.980000e+03 3.360000e+03 3.000000e+03
      vertex 9.540000e+03 3.160000e+03 3.000000e+03
      vertex 9.540000e+03 3.360000e+03 3.000000e+03
    endloop
  endfacet
  facet normal -1.000000e+00 0.000000e+00 0.000000e+00
    outer loop
      vertex 8.980000e+03 3.360000e+03 0.000000e+00
      vertex 8.980000e+03 3.160000e+03 0.000000e+00
      vertex 8.980000e+03 3.160000e+03 3.000000e+03
    endloop
  endfacet
  facet normal -1.000000e+00 0.000000e+00 0.000000e+00
    outer loop
      vertex 8.980000e+03 3.360000e+03 0.000000e+00
      vertex 8.980000e+03 3.160000e+03 3.000000e+03
      vertex 8.980000e+03 3.360000e+03 3.000000e+03
    endloop
  endfacet
  facet normal 0.000000e+00 -1.000000e+00 0.000000e+00
    outer loop
      vertex 8.980000e+03 3.160000e+03 0.000000e+00
      vertex 9.540000e+03 3.160000e+03 0.000000e+00
      vertex 9.540000e+03 3.160000e+03 3.000000e+03
    endloop
  endfacet
  facet normal 0.000000e+00 -1.000000e+00 0.000000e+00
    outer loop
      vertex 8.980000e+03 3.160000e+03 0.000000e+00
      vertex 9.540000e+03 3.160000e+03 3.000000e+03
      vertex 8.980000e+03 3.160000e+03 3.000000e+03
    endloop
  endfacet
  facet normal 1.000000e+00 0.000000e+00 0.000000e+00
    outer loop
      vertex 9.540000e+03 3.160000e+03 0.000000e+00
      vertex 9.540000e+03 3.360000e+03 0.000000e+00
      vertex 9.540000e+03 3.360000e+03 3.000000e+03
    endloop
  endfacet
  facet normal 1.000000e+00 0.000000e+00 0.000000e+00
    outer loop
      vertex 9.540000e+03 3.160000e+03 0.000000e+00
      vertex 9.540000e+03 3.360000e+03 3.000000e+03
      vertex 9.540000e+03 3.160000e+03 3.000000e+03
    endloop
  endfacet
  facet normal 0.000000e+00 1.000000e+00 0.000000e+00
    outer loop
      vertex 9.540000e+03 3.360000e+03 0.000000e+00
      vertex 8.980000e+03 3.360000e+03 0.000000e+00
      vertex 8.980000e+03 3.360000e+03 3.000000e+03
    endloop
  endfacet
  facet normal 0.000000e+00 1.000000e+00 -0.000000e+00
    outer loop
      vertex 9.540000e+03 3.360000e+03 0.000000e+00
      vertex 8.980000e+03 3.360000e+03 3.000000e+03
      vertex 9.540000e+03 3.360000e+03 3.000000e+03
    endloop
  endfacet
  facet normal 0.000000e+00 0.000000e+00 -1.000000e+00
    outer loop
      vertex 7.780000e+03 8.200000e+02 0.000000e+00
      vertex 8.340000e+03 6.200000e+02 0.000000e+00
      vertex 7.780000e+03 6.200000e+02 0.000000e+00
    endloop
  endfacet
  facet normal 0.000000e+00 0.000000e+00 -1.000000e+00
    outer loop
      vertex 7.780000e+03 8.200000e+02 0.000000e+00
      vertex 8.340000e+03 8.200000e+02 0.000000e+00
      vertex 8.340000e+03 6.200000e+02 0.000000e+00
    endloop
  endfacet
  facet normal 0.000000e+00 0.000000e+00 1.000000e+00
    outer loop
      vertex 7.780000e+03 8.200000e+02 3.000000e+03
      vertex 7.780000e+03 6.200000e+02 3.000000e+03
      vertex 8.340000e+03 6.200000e+02 3.000000e+03
    endloop
  endfacet
  facet normal -0.000000e+00 0.000000e+00 1.000000e+00
    outer loop
      vertex 7.780000e+03 8.200000e+02 3.000000e+03
      vertex 8.340000e+03 6.200000e+02 3.000000e+03
      vertex 8.340000e+03 8.200000e+02 3.000000e+03
    endloop
  endfacet
  facet normal -1.000000e+00 0.000000e+00 0.000000e+00
    outer loop
      vertex 7.780000e+03 8.200000e+02 0.000000e+00
      vertex 7.780000e+03 6.200000e+02 0.000000e+00
      vertex 7.780000e+03 6.200000e+02 3.000000e+03
    endloop
  endfacet
  facet normal -1.000000e+00 0.000000e+00 0.000000e+00
    outer loop
      vertex 7.780000e+03 8.200000e+02 0.000000e+00
      vertex 7.780000e+03 6.200000e+02 3.000000e+03
      vertex 7.780000e+03 8.200000e+02 3.000000e+03
    endloop
  endfacet
  facet normal 0.000000e+00 -1.000000e+00 0.000000e+00
    outer loop
      vertex 7.780000e+03 6.200000e+02 0.000000e+00
      vertex 8.340000e+03 6.200000e+02 0.000000e+00
      vertex 8.340000e+03 6.200000e+02 3.000000e+03
    endloop
  endfacet
  facet normal 0.000000e+00 -1.000000e+00 0.000000e+00
    outer loop
      vertex 7.780000e+03 6.200000e+02 0.000000e+00
      vertex 8.340000e+03 6.200000e+02 3.000000e+03
      vertex 7.780000e+03 6.200000e+02 3.000000e+03
    endloop
  endfacet
  facet normal 1.000000e+00 0.000000e+00 0.000000e+00
    outer loop
      vertex 8.340000e+03 6.200000e+02 0.000000e+00
      vertex 8.340000e+03 8.200000e+02 0.000000e+00
      vertex 8.340000e+03 8.200000e+02 3.000000e+03
    endloop
  endfacet
  facet normal 1.000000e+00 0.000000e+00 0.000000e+00
    outer loop
      vertex 8.340000e+03 6.200000e+02 0.000000e+00
      vertex 8.340000e+03 8.200000e+02 3.000000e+03
      vertex 8.340000e+03 6.200000e+02 3.000000e+03
    endloop
  endfacet
  facet normal 0.000000e+00 1.000000e+00 0.000000e+00
    outer loop
      vertex 8.340000e+03 8.200000e+02 0.000000e+00
      vertex 7.780000e+03 8.200000e+02 0.000000e+00
      vertex 7.780000e+03 8.200000e+02 3.000000e+03
    endloop
  endfacet
  facet normal 0.000000e+00 1.000000e+00 -0.000000e+00
    outer loop
      vertex 8.340000e+03 8.200000e+02 0.000000e+00
      vertex 7.780000e+03 8.200000e+02 3.000000e+03
      vertex 8.340000e+03 8.200000e+02 3.000000e+03
    endloop
  endfacet
  facet normal 0.000000e+00 0.000000e+00 -1.000000e+00
    outer loop
      vertex 1.067000e+04 5.550000e+03 0.000000e+00
      vertex 1.087000e+04 6.010000e+03 0.000000e+00
      vertex 1.087000e+04 5.550000e+03 0.000000e+00
    endloop
  endfacet
  facet normal 0.000000e+00 0.000000e+00 -1.000000e+00
    outer loop
      vertex 1.067000e+04 5.550000e+03 0.000000e+00
      vertex 1.067000e+04 6.010000e+03 0.000000e+00
      vertex 1.087000e+04 6.010000e+03 0.000000e+00
    endloop
  endfacet
  facet normal 0.000000e+00 0.000000e+00 1.000000e+00
    outer loop
      vertex 1.067000e+04 5.550000e+03 3.000000e+03
      vertex 1.087000e+04 5.550000e+03 3.000000e+03
      vertex 1.087000e+04 6.010000e+03 3.000000e+03
    endloop
  endfacet
  facet normal 0.000000e+00 0.000000e+00 1.000000e+00
    outer loop
      vertex 1.067000e+04 5.550000e+03 3.000000e+03
      vertex 1.087000e+04 6.010000e+03 3.000000e+03
      vertex 1.067000e+04 6.010000e+03 3.000000e+03
    endloop
  endfacet
  facet normal 0.000000e+00 -1.000000e+00 0.000000e+00
    outer loop
      vertex 1.067000e+04 5.550000e+03 0.000000e+00
      vertex 1.087000e+04 5.550000e+03 0.000000e+00
      vertex 1.087000e+04 5.550000e+03 3.000000e+03
    endloop
  endfacet
  facet normal 0.000000e+00 -1.000000e+00 0.000000e+00
    outer loop
      vertex 1.067000e+04 5.550000e+03 0.000000e+00
      vertex 1.087000e+04 5.550000e+03 3.000000e+03
      vertex 1.067000e+04 5.550000e+03 3.000000e+03
    endloop
  endfacet
  facet normal 1.000000e+00 0.000000e+00 0.000000e+00
    outer loop
      vertex 1.087000e+04 5.550000e+03 0.000000e+00
      vertex 1.087000e+04 6.010000e+03 0.000000e+00
      vertex 1.087000e+04 6.010000e+03 3.000000e+03
    endloop
  endfacet
  facet normal 1.000000e+00 0.000000e+00 0.000000e+00
    outer loop
      vertex 1.087000e+04 5.550000e+03 0.000000e+00
      vertex 1.087000e+04 6.010000e+03 3.000000e+03
      vertex 1.087000e+04 5.550000e+03 3.000000e+03
    endloop
  endfacet
  facet normal 0.000000e+00 1.000000e+00 0.000000e+00
    outer loop
      vertex 1.087000e+04 6.010000e+03 0.000000e+00
      vertex 1.067000e+04 6.010000e+03 0.000000e+00
      vertex 1.067000e+04 6.010000e+03 3.000000e+03
    endloop
  endfacet
  facet normal 0.000000e+00 1.000000e+00 -0.000000e+00
    outer loop
      vertex 1.087000e+04 6.010000e+03 0.000000e+00
      vertex 1.067000e+04 6.010000e+03 3.000000e+03
      vertex 1.087000e+04 6.010000e+03 3.000000e+03
    endloop
  endfacet
  facet normal -1.000000e+00 0.000000e+00 0.000000e+00
    outer loop
      vertex 1.067000e+04 6.010000e+03 0.000000e+00
      vertex 1.067000e+04 5.550000e+03 0.000000e+00
      vertex 1.067000e+04 5.550000e+03 3.000000e+03
    endloop
  endfacet
  facet normal -1.000000e+00 0.000000e+00 0.000000e+00
    outer loop
      vertex 1.067000e+04 6.010000e+03 0.000000e+00
      vertex 1.067000e+04 5.550000e+03 3.000000e+03
      vertex 1.067000e+04 6.010000e+03 3.000000e+03
    endloop
  endfacet
  facet normal 0.000000e+00 0.000000e+00 -1.000000e+00
    outer loop
      vertex 2.120000e+03 7.690000e+03 0.000000e+00
      vertex 2.610000e+03 7.490000e+03 0.000000e+00
      vertex 2.120000e+03 7.490000e+03 0.000000e+00
    endloop
  endfacet
  facet normal 0.000000e+00 0.000000e+00 -1.000000e+00
    outer loop
      vertex 2.120000e+03 7.690000e+03 0.000000e+00
      vertex 2.610000e+03 7.690000e+03 0.000000e+00
      vertex 2.610000e+03 7.490000e+03 0.000000e+00
    endloop
  endfacet
  facet normal 0.000000e+00 0.000000e+00 1.000000e+00
    outer loop
      vertex 2.120000e+03 7.690000e+03 3.000000e+03
      vertex 2.120000e+03 7.490000e+03 3.000000e+03
      vertex 2.610000e+03 7.490000e+03 3.000000e+03
    endloop
  endfacet
  facet normal -0.000000e+00 0.000000e+00 1.000000e+00
    outer loop
      vertex 2.120000e+03 7.690000e+03 3.000000e+03
      vertex 2.610000e+03 7.490000e+03 3.000000e+03
      vertex 2.610000e+03 7.690000e+03 3.000000e+03
    endloop
  endfacet
  facet normal -1.000000e+00 0.000000e+00 0.000000e+00
    outer loop
      vertex 2.120000e+03 7.690000e+03 0.000000e+00
      vertex 2.120000e+03 7.490000e+03 0.000000e+00
      vertex 2.120000e+03 7.490000e+03 3.000000e+03
    endloop
  endfacet
  facet normal -1.000000e+00 0.000000e+00 0.000000e+00
    outer loop
      vertex 2.120000e+03 7.690000e+03 0.000000e+00
      vertex 2.120000e+03 7.490000e+03 3.000000e+03
      vertex 2.120000e+03 7.690000e+03 3.000000e+03
    endloop
  endfacet
  facet normal 0.000000e+00 -1.000000e+00 0.000000e+00
    outer loop
      vertex 2.120000e+03 7.490000e+03 0.000000e+00
      vertex 2.610000e+03 7.490000e+03 0.000000e+00
      vertex 2.610000e+03 7.490000e+03 3.000000e+03
    endloop
  endfacet
  facet normal 0.000000e+00 -1.000000e+00 0.000000e+00
    outer loop
      vertex 2.120000e+03 7.490000e+03 0.000000e+00
      vertex 2.610000e+03 7.490000e+03 3.000000e+03
      vertex 2.120000e+03 7.490000e+03 3.000000e+03
    endloop
  endfacet
  facet normal 1.000000e+00 0.000000e+00 0.000000e+00
    outer loop
      vertex 2.610000e+03 7.490000e+03 0.000000e+00
      vertex 2.610000e+03 7.690000e+03 0.000000e+00
      vertex 2.610000e+03 7.690000e+03 3.000000e+03
    endloop
  endfacet
  facet normal 1.000000e+00 0.000000e+00 0.000000e+00
    outer loop
      vertex 2.610000e+03 7.490000e+03 0.000000e+00
      vertex 2.610000e+03 7.690000e+03 3.000000e+03
      vertex 2.610000e+03 7.490000e+03 3.000000e+03
    endloop
  endfacet
  facet normal 0.000000e+00 1.000000e+00 0.000000e+00
    outer loop
      vertex 2.610000e+03 7.690000e+03 0.000000e+00
      vertex 2.120000e+03 7.690000e+03 0.000000e+00
      vertex 2.120000e+03 7.690000e+03 3.000000e+03
    endloop
  endfacet
  facet normal 0.000000e+00 1.000000e+00 -0.000000e+00
    outer loop
      vertex 2.610000e+03 7.690000e+03 0.000000e+00
      vertex 2.120000e+03 7.690000e+03 3.000000e+03
      vertex 2.610000e+03 7.690000e+03 3.000000e+03
    endloop
  endfacet
  facet normal 0.000000e+00 0.000000e+00 -1.000000e+00
    outer loop
      vertex 8.230000e+03 3.360000e+03 0.000000e+00
      vertex 8.790000e+03 3.160000e+03 0.000000e+00
      vertex 8.230000e+03 3.160000e+03 0.000000e+00
    endloop
  endfacet
  facet normal 0.000000e+00 0.000000e+00 -1.000000e+00
    outer loop
      vertex 8.230000e+03 3.360000e+03 0.000000e+00
      vertex 8.790000e+03 3.360000e+03 0.000000e+00
      vertex 8.790000e+03 3.160000e+03 0.000000e+00
    endloop
  endfacet
  facet normal 0.000000e+00 0.000000e+00 1.000000e+00
    outer loop
      vertex 8.230000e+03 3.360000e+03 3.000000e+03
      vertex 8.230000e+03 3.160000e+03 3.000000e+03
      vertex 8.790000e+03 3.160000e+03 3.000000e+03
    endloop
  endfacet
  facet normal -0.000000e+00 0.000000e+00 1.000000e+00
    outer loop
      vertex 8.230000e+03 3.360000e+03 3.000000e+03
      vertex 8.790000e+03 3.160000e+03 3.000000e+03
      vertex 8.790000e+03 3.360000e+03 3.000000e+03
    endloop
  endfacet
  facet normal -1.000000e+00 0.000000e+00 0.000000e+00
    outer loop
      vertex 8.230000e+03 3.360000e+03 0.000000e+00
      vertex 8.230000e+03 3.160000e+03 0.000000e+00
      vertex 8.230000e+03 3.160000e+03 3.000000e+03
    endloop
  endfacet
  facet normal -1.000000e+00 0.000000e+00 0.000000e+00
    outer loop
      vertex 8.230000e+03 3.360000e+03 0.000000e+00
      vertex 8.230000e+03 3.160000e+03 3.000000e+03
      vertex 8.230000e+03 3.360000e+03 3.000000e+03
    endloop
  endfacet
  facet normal 0.000000e+00 -1.000000e+00 0.000000e+00
    outer loop
      vertex 8.230000e+03 3.160000e+03 0.000000e+00
      vertex 8.790000e+03 3.160000e+03 0.000000e+00
      vertex 8.790000e+03 3.160000e+03 3.000000e+03
    endloop
  endfacet
  facet normal 0.000000e+00 -1.000000e+00 0.000000e+00
    outer loop
      vertex 8.230000e+03 3.160000e+03 0.000000e+00
      vertex 8.790000e+03 3.160000e+03 3.000000e+03
      vertex 8.230000e+03 3.160000e+03 3.000000e+03
    endloop
  endfacet
  facet normal 1.000000e+00 0.000000e+00 0.000000e+00
    outer loop
      vertex 8.790000e+03 3.160000e+03 0.000000e+00
      vertex 8.790000e+03 3.360000e+03 0.000000e+00
      vertex 8.790000e+03 3.360000e+03 3.000000e+03
    endloop
  endfacet
  facet normal 1.000000e+00 0.000000e+00 0.000000e+00
    outer loop
      vertex 8.790000e+03 3.160000e+03 0.000000e+00
      vertex 8.790000e+03 3.360000e+03 3.000000e+03
      vertex 8.790000e+03 3.160000e+03 3.000000e+03
    endloop
  endfacet
  facet normal 0.000000e+00 1.000000e+00 0.000000e+00
    outer loop
      vertex 8.790000e+03 3.360000e+03 0.000000e+00
      vertex 8.230000e+03 3.360000e+03 0.000000e+00
      vertex 8.230000e+03 3.360000e+03 3.000000e+03
    endloop
  endfacet
  facet normal 0.000000e+00 1.000000e+00 -0.000000e+00
    outer loop
      vertex 8.790000e+03 3.360000e+03 0.000000e+00
      vertex 8.230000e+03 3.360000e+03 3.000000e+03
      vertex 8.790000e+03 3.360000e+03 3.000000e+03
    endloop
  endfacet
  facet normal 0.000000e+00 0.000000e+00 -1.000000e+00
    outer loop
      vertex 9.720000e+03 3.360000e+03 0.000000e+00
      vertex 1.028000e+04 3.160000e+03 0.000000e+00
      vertex 9.720000e+03 3.160000e+03 0.000000e+00
    endloop
  endfacet
  facet normal 0.000000e+00 0.000000e+00 -1.000000e+00
    outer loop
      vertex 9.720000e+03 3.360000e+03 0.000000e+00
      vertex 1.028000e+04 3.360000e+03 0.000000e+00
      vertex 1.028000e+04 3.160000e+03 0.000000e+00
    endloop
  endfacet
  facet normal 0.000000e+00 0.000000e+00 1.000000e+00
    outer loop
      vertex 9.720000e+03 3.360000e+03 3.000000e+03
      vertex 9.720000e+03 3.160000e+03 3.000000e+03
      vertex 1.028000e+04 3.160000e+03 3.000000e+03
    endloop
  endfacet
  facet normal -0.000000e+00 0.000000e+00 1.000000e+00
    outer loop
      vertex 9.720000e+03 3.360000e+03 3.000000e+03
      vertex 1.028000e+04 3.160000e+03 3.000000e+03
      vertex 1.028000e+04 3.360000e+03 3.000000e+03
    endloop
  endfacet
  facet normal -1.000000e+00 0.000000e+00 0.000000e+00
    outer loop
      vertex 9.720000e+03 3.360000e+03 0.000000e+00
      vertex 9.720000e+03 3.160000e+03 0.000000e+00
      vertex 9.720000e+03 3.160000e+03 3.000000e+03
    endloop
  endfacet
  facet normal -1.000000e+00 0.000000e+00 0.000000e+00
    outer loop
      vertex 9.720000e+03 3.360000e+03 0.000000e+00
      vertex 9.720000e+03 3.160000e+03 3.000000e+03
      vertex 9.720000e+03 3.360000e+03 3.000000e+03
    endloop
  endfacet
  facet normal 0.000000e+00 -1.000000e+00 0.000000e+00
    outer loop
      vertex 9.720000e+03 3.160000e+03 0.000000e+00
      vertex 1.028000e+04 3.160000e+03 0.000000e+00
      vertex 1.028000e+04 3.160000e+03 3.000000e+03
    endloop
  endfacet
  facet normal 0.000000e+00 -1.000000e+00 0.000000e+00
    outer loop
      vertex 9.720000e+03 3.160000e+03 0.000000e+00
      vertex 1.028000e+04 3.160000e+03 3.000000e+03
      vertex 9.720000e+03 3.160000e+03 3.000000e+03
    endloop
  endfacet
  facet normal 1.000000e+00 0.000000e+00 0.000000e+00
    outer loop
      vertex 1.028000e+04 3.160000e+03 0.000000e+00
      vertex 1.028000e+04 3.360000e+03 0.000000e+00
      vertex 1.028000e+04 3.360000e+03 3.000000e+03
    endloop
  endfacet
  facet normal 1.000000e+00 0.000000e+00 0.000000e+00
    outer loop
      vertex 1.028000e+04 3.160000e+03 0.000000e+00
      vertex 1.028000e+04 3.360000e+03 3.000000e+03
      vertex 1.028000e+04 3.160000e+03 3.000000e+03
    endloop
  endfacet
  facet normal 0.000000e+00 1.000000e+00 0.000000e+00
    outer loop
      vertex 1.028000e+04 3.360000e+03 0.000000e+00
      vertex 9.720000e+03 3.360000e+03 0.000000e+00
      vertex 9.720000e+03 3.360000e+03 3.000000e+03
    endloop
  endfacet
  facet normal 0.000000e+00 1.000000e+00 -0.000000e+00
    outer loop
      vertex 1.028000e+04 3.360000e+03 0.000000e+00
      vertex 9.720000e+03 3.360000e+03 3.000000e+03
      vertex 1.028000e+04 3.360000e+03 3.000000e+03
    endloop
  endfacet
  facet normal 0.000000e+00 0.000000e+00 -1.000000e+00
    outer loop
      vertex 1.760000e+03 7.690000e+03 0.000000e+00
      vertex 2.110000e+03 7.490000e+03 0.000000e+00
      vertex 1.760000e+03 7.490000e+03 0.000000e+00
    endloop
  endfacet
  facet normal 0.000000e+00 0.000000e+00 -1.000000e+00
    outer loop
      vertex 1.760000e+03 7.690000e+03 0.000000e+00
      vertex 2.110000e+03 7.690000e+03 0.000000e+00
      vertex 2.110000e+03 7.490000e+03 0.000000e+00
    endloop
  endfacet
  facet normal 0.000000e+00 0.000000e+00 1.000000e+00
    outer loop
      vertex 1.760000e+03 7.690000e+03 3.000000e+03
      vertex 1.760000e+03 7.490000e+03 3.000000e+03
      vertex 2.110000e+03 7.490000e+03 3.000000e+03
    endloop
  endfacet
  facet normal -0.000000e+00 0.000000e+00 1.000000e+00
    outer loop
      vertex 1.760000e+03 7.690000e+03 3.000000e+03
      vertex 2.110000e+03 7.490000e+03 3.000000e+03
      vertex 2.110000e+03 7.690000e+03 3.000000e+03
    endloop
  endfacet
  facet normal -1.000000e+00 0.000000e+00 0.000000e+00
    outer loop
      vertex 1.760000e+03 7.690000e+03 0.000000e+00
      vertex 1.760000e+03 7.490000e+03 0.000000e+00
      vertex 1.760000e+03 7.490000e+03 3.000000e+03
    endloop
  endfacet
  facet normal -1.000000e+00 0.000000e+00 0.000000e+00
    outer loop
      vertex 1.760000e+03 7.690000e+03 0.000000e+00
      vertex 1.760000e+03 7.490000e+03 3.000000e+03
      vertex 1.760000e+03 7.690000e+03 3.000000e+03
    endloop
  endfacet
  facet normal 0.000000e+00 -1.000000e+00 0.000000e+00
    outer loop
      vertex 1.760000e+03 7.490000e+03 0.000000e+00
      vertex 2.110000e+03 7.490000e+03 0.000000e+00
      vertex 2.110000e+03 7.490000e+03 3.000000e+03
    endloop
  endfacet
  facet normal 0.000000e+00 -1.000000e+00 0.000000e+00
    outer loop
      vertex 1.760000e+03 7.490000e+03 0.000000e+00
      vertex 2.110000e+03 7.490000e+03 3.000000e+03
      vertex 1.760000e+03 7.490000e+03 3.000000e+03
    endloop
  endfacet
  facet normal 1.000000e+00 0.000000e+00 0.000000e+00
    outer loop
      vertex 2.110000e+03 7.490000e+03 0.000000e+00
      vertex 2.110000e+03 7.690000e+03 0.000000e+00
      vertex 2.110000e+03 7.690000e+03 3.000000e+03
    endloop
  endfacet
  facet normal 1.000000e+00 0.000000e+00 0.000000e+00
    outer loop
      vertex 2.110000e+03 7.490000e+03 0.000000e+00
      vertex 2.110000e+03 7.690000e+03 3.000000e+03
      vertex 2.110000e+03 7.490000e+03 3.000000e+03
    endloop
  endfacet
  facet normal 0.000000e+00 1.000000e+00 0.000000e+00
    outer loop
      vertex 2.110000e+03 7.690000e+03 0.000000e+00
      vertex 1.760000e+03 7.690000e+03 0.000000e+00
      vertex 1.760000e+03 7.690000e+03 3.000000e+03
    endloop
  endfacet
  facet normal 0.000000e+00 1.000000e+00 -0.000000e+00
    outer loop
      vertex 2.110000e+03 7.690000e+03 0.000000e+00
      vertex 1.760000e+03 7.690000e+03 3.000000e+03
      vertex 2.110000e+03 7.690000e+03 3.000000e+03
    endloop
  endfacet
  facet normal 0.000000e+00 0.000000e+00 -1.000000e+00
    outer loop
      vertex 1.028000e+04 8.200000e+02 0.000000e+00
      vertex 1.074000e+04 6.200000e+02 0.000000e+00
      vertex 1.028000e+04 6.200000e+02 0.000000e+00
    endloop
  endfacet
  facet normal 0.000000e+00 0.000000e+00 -1.000000e+00
    outer loop
      vertex 1.028000e+04 8.200000e+02 0.000000e+00
      vertex 1.074000e+04 8.200000e+02 0.000000e+00
      vertex 1.074000e+04 6.200000e+02 0.000000e+00
    endloop
  endfacet
  facet normal 0.000000e+00 0.000000e+00 1.000000e+00
    outer loop
      vertex 1.028000e+04 8.200000e+02 3.000000e+03
      vertex 1.028000e+04 6.200000e+02 3.000000e+03
      vertex 1.074000e+04 6.200000e+02 3.000000e+03
    endloop
  endfacet
  facet normal -0.000000e+00 0.000000e+00 1.000000e+00
    outer loop
      vertex 1.028000e+04 8.200000e+02 3.000000e+03
      vertex 1.074000e+04 6.200000e+02 3.000000e+03
      vertex 1.074000e+04 8.200000e+02 3.000000e+03
    endloop
  endfacet
  facet normal -1.000000e+00 0.000000e+00 0.000000e+00
    outer loop
      vertex 1.028000e+04 8.200000e+02 0.000000e+00
      vertex 1.028000e+04 6.200000e+02 0.000000e+00
      vertex 1.028000e+04 6.200000e+02 3.000000e+03
    endloop
  endfacet
  facet normal -1.000000e+00 0.000000e+00 0.000000e+00
    outer loop
      vertex 1.028000e+04 8.200000e+02 0.000000e+00
      vertex 1.028000e+04 6.200000e+02 3.000000e+03
      vertex 1.028000e+04 8.200000e+02 3.000000e+03
    endloop
  endfacet
  facet normal 0.000000e+00 -1.000000e+00 0.000000e+00
    outer loop
      vertex 1.028000e+04 6.200000e+02 0.000000e+00
      vertex 1.074000e+04 6.200000e+02 0.000000e+00
      vertex 1.074000e+04 6.200000e+02 3.000000e+03
    endloop
  endfacet
  facet normal 0.000000e+00 -1.000000e+00 0.000000e+00
    outer loop
      vertex 1.028000e+04 6.200000e+02 0.000000e+00
      vertex 1.074000e+04 6.200000e+02 3.000000e+03
      vertex 1.028000e+04 6.200000e+02 3.000000e+03
    endloop
  endfacet
  facet normal 1.000000e+00 0.000000e+00 0.000000e+00
    outer loop
      vertex 1.074000e+04 6.200000e+02 0.000000e+00
      vertex 1.074000e+04 8.200000e+02 0.000000e+00
      vertex 1.074000e+04 8.200000e+02 3.000000e+03
    endloop
  endfacet
  facet normal 1.000000e+00 0.000000e+00 0.000000e+00
    outer loop
      vertex 1.074000e+04 6.200000e+02 0.000000e+00
      vertex 1.074000e+04 8.200000e+02 3.000000e+03
      vertex 1.074000e+04 6.200000e+02 3.000000e+03
    endloop
  endfacet
  facet normal 0.000000e+00 1.000000e+00 0.000000e+00
    outer loop
      vertex 1.074000e+04 8.200000e+02 0.000000e+00
      vertex 1.028000e+04 8.200000e+02 0.000000e+00
      vertex 1.028000e+04 8.200000e+02 3.000000e+03
    endloop
  endfacet
  facet normal 0.000000e+00 1.000000e+00 -0.000000e+00
    outer loop
      vertex 1.074000e+04 8.200000e+02 0.000000e+00
      vertex 1.028000e+04 8.200000e+02 3.000000e+03
      vertex 1.074000e+04 8.200000e+02 3.000000e+03
    endloop
  endfacet
  facet normal 0.000000e+00 0.000000e+00 -1.000000e+00
    outer loop
      vertex 7.850000e+03 3.360000e+03 0.000000e+00
      vertex 8.220000e+03 3.160000e+03 0.000000e+00
      vertex 7.850000e+03 3.160000e+03 0.000000e+00
    endloop
  endfacet
  facet normal 0.000000e+00 0.000000e+00 -1.000000e+00
    outer loop
      vertex 7.850000e+03 3.360000e+03 0.000000e+00
      vertex 8.220000e+03 3.360000e+03 0.000000e+00
      vertex 8.220000e+03 3.160000e+03 0.000000e+00
    endloop
  endfacet
  facet normal 0.000000e+00 0.000000e+00 1.000000e+00
    outer loop
      vertex 7.850000e+03 3.360000e+03 3.000000e+03
      vertex 7.850000e+03 3.160000e+03 3.000000e+03
      vertex 8.220000e+03 3.160000e+03 3.000000e+03
    endloop
  endfacet
  facet normal -0.000000e+00 0.000000e+00 1.000000e+00
    outer loop
      vertex 7.850000e+03 3.360000e+03 3.000000e+03
      vertex 8.220000e+03 3.160000e+03 3.000000e+03
      vertex 8.220000e+03 3.360000e+03 3.000000e+03
    endloop
  endfacet
  facet normal -1.000000e+00 0.000000e+00 0.000000e+00
    outer loop
      vertex 7.850000e+03 3.360000e+03 0.000000e+00
      vertex 7.850000e+03 3.160000e+03 0.000000e+00
      vertex 7.850000e+03 3.160000e+03 3.000000e+03
    endloop
  endfacet
  facet normal -1.000000e+00 0.000000e+00 0.000000e+00
    outer loop
      vertex 7.850000e+03 3.360000e+03 0.000000e+00
      vertex 7.850000e+03 3.160000e+03 3.000000e+03
      vertex 7.850000e+03 3.360000e+03 3.000000e+03
    endloop
  endfacet
  facet normal 0.000000e+00 -1.000000e+00 0.000000e+00
    outer loop
      vertex 7.850000e+03 3.160000e+03 0.000000e+00
      vertex 8.220000e+03 3.160000e+03 0.000000e+00
      vertex 8.220000e+03 3.160000e+03 3.000000e+03
    endloop
  endfacet
  facet normal 0.000000e+00 -1.000000e+00 0.000000e+00
    outer loop
      vertex 7.850000e+03 3.160000e+03 0.000000e+00
      vertex 8.220000e+03 3.160000e+03 3.000000e+03
      vertex 7.850000e+03 3.160000e+03 3.000000e+03
    endloop
  endfacet
  facet normal 1.000000e+00 0.000000e+00 0.000000e+00
    outer loop
      vertex 8.220000e+03 3.160000e+03 0.000000e+00
      vertex 8.220000e+03 3.360000e+03 0.000000e+00
      vertex 8.220000e+03 3.360000e+03 3.000000e+03
    endloop
  endfacet
  facet normal 1.000000e+00 0.000000e+00 0.000000e+00
    outer loop
      vertex 8.220000e+03 3.160000e+03 0.000000e+00
      vertex 8.220000e+03 3.360000e+03 3.000000e+03
      vertex 8.220000e+03 3.160000e+03 3.000000e+03
    endloop
  endfacet
  facet normal 0.000000e+00 1.000000e+00 0.000000e+00
    outer loop
      vertex 8.220000e+03 3.360000e+03 0.000000e+00
      vertex 7.850000e+03 3.360000e+03 0.000000e+00
      vertex 7.850000e+03 3.360000e+03 3.000000e+03
    endloop
  endfacet
  facet normal 0.000000e+00 1.000000e+00 -0.000000e+00
    outer loop
      vertex 8.220000e+03 3.360000e+03 0.000000e+00
      vertex 7.850000e+03 3.360000e+03 3.000000e+03
      vertex 8.220000e+03 3.360000e+03 3.000000e+03
    endloop
  endfacet
  facet normal 0.000000e+00 0.000000e+00 -1.000000e+00
    outer loop
      vertex 4.890000e+03 7.200000e+03 0.000000e+00
      vertex 5.090000e+03 7.510000e+03 0.000000e+00
      vertex 5.090000e+03 7.200000e+03 0.000000e+00
    endloop
  endfacet
  facet normal 0.000000e+00 0.000000e+00 -1.000000e+00
    outer loop
      vertex 4.890000e+03 7.200000e+03 0.000000e+00
      vertex 4.890000e+03 7.510000e+03 0.000000e+00
      vertex 5.090000e+03 7.510000e+03 0.000000e+00
    endloop
  endfacet
  facet normal 0.000000e+00 0.000000e+00 1.000000e+00
    outer loop
      vertex 4.890000e+03 7.200000e+03 3.000000e+03
      vertex 5.090000e+03 7.200000e+03 3.000000e+03
      vertex 5.090000e+03 7.510000e+03 3.000000e+03
    endloop
  endfacet
  facet normal 0.000000e+00 0.000000e+00 1.000000e+00
    outer loop
      vertex 4.890000e+03 7.200000e+03 3.000000e+03
      vertex 5.090000e+03 7.510000e+03 3.000000e+03
      vertex 4.890000e+03 7.510000e+03 3.000000e+03
    endloop
  endfacet
  facet normal 0.000000e+00 -1.000000e+00 0.000000e+00
    outer loop
      vertex 4.890000e+03 7.200000e+03 0.000000e+00
      vertex 5.090000e+03 7.200000e+03 0.000000e+00
      vertex 5.090000e+03 7.200000e+03 3.000000e+03
    endloop
  endfacet
  facet normal 0.000000e+00 -1.000000e+00 0.000000e+00
    outer loop
      vertex 4.890000e+03 7.200000e+03 0.000000e+00
      vertex 5.090000e+03 7.200000e+03 3.000000e+03
      vertex 4.890000e+03 7.200000e+03 3.000000e+03
    endloop
  endfacet
  facet normal 1.000000e+00 0.000000e+00 0.000000e+00
    outer loop
      vertex 5.090000e+03 7.200000e+03 0.000000e+00
      vertex 5.090000e+03 7.510000e+03 0.000000e+00
      vertex 5.090000e+03 7.510000e+03 3.000000e+03
    endloop
  endfacet
  facet normal 1.000000e+00 0.000000e+00 0.000000e+00
    outer loop
      vertex 5.090000e+03 7.200000e+03 0.000000e+00
      vertex 5.090000e+03 7.510000e+03 3.000000e+03
      vertex 5.090000e+03 7.200000e+03 3.000000e+03
    endloop
  endfacet
  facet normal 0.000000e+00 1.000000e+00 0.000000e+00
    outer loop
      vertex 5.090000e+03 7.510000e+03 0.000000e+00
      vertex 4.890000e+03 7.510000e+03 0.000000e+00
      vertex 4.890000e+03 7.510000e+03 3.000000e+03
    endloop
  endfacet
  facet normal 0.000000e+00 1.000000e+00 -0.000000e+00
    outer loop
      vertex 5.090000e+03 7.510000e+03 0.000000e+00
      vertex 4.890000e+03 7.510000e+03 3.000000e+03
      vertex 5.090000e+03 7.510000e+03 3.000000e+03
    endloop
  endfacet
  facet normal -1.000000e+00 0.000000e+00 0.000000e+00
    outer loop
      vertex 4.890000e+03 7.510000e+03 0.000000e+00
      vertex 4.890000e+03 7.200000e+03 0.000000e+00
      vertex 4.890000e+03 7.200000e+03 3.000000e+03
    endloop
  endfacet
  facet normal -1.000000e+00 0.000000e+00 0.000000e+00
    outer loop
      vertex 4.890000e+03 7.510000e+03 0.000000e+00
      vertex 4.890000e+03 7.200000e+03 3.000000e+03
      vertex 4.890000e+03 7.510000e+03 3.000000e+03
    endloop
  endfacet
  facet normal -0.000000e+00 0.000000e+00 -1.000000e+00
    outer loop
      vertex 1.850000e+03 1.190000e+03 0.000000e+00
      vertex 1.650000e+03 7.400000e+02 0.000000e+00
      vertex 1.650000e+03 1.190000e+03 0.000000e+00
    endloop
  endfacet
  facet normal 0.000000e+00 -0.000000e+00 -1.000000e+00
    outer loop
      vertex 1.850000e+03 1.190000e+03 0.000000e+00
      vertex 1.850000e+03 7.400000e+02 0.000000e+00
      vertex 1.650000e+03 7.400000e+02 0.000000e+00
    endloop
  endfacet
  facet normal 0.000000e+00 0.000000e+00 1.000000e+00
    outer loop
      vertex 1.850000e+03 1.190000e+03 3.000000e+03
      vertex 1.650000e+03 1.190000e+03 3.000000e+03
      vertex 1.650000e+03 7.400000e+02 3.000000e+03
    endloop
  endfacet
  facet normal 0.000000e+00 0.000000e+00 1.000000e+00
    outer loop
      vertex 1.850000e+03 1.190000e+03 3.000000e+03
      vertex 1.650000e+03 7.400000e+02 3.000000e+03
      vertex 1.850000e+03 7.400000e+02 3.000000e+03
    endloop
  endfacet
  facet normal 0.000000e+00 1.000000e+00 0.000000e+00
    outer loop
      vertex 1.850000e+03 1.190000e+03 0.000000e+00
      vertex 1.650000e+03 1.190000e+03 0.000000e+00
      vertex 1.650000e+03 1.190000e+03 3.000000e+03
    endloop
  endfacet
  facet normal 0.000000e+00 1.000000e+00 -0.000000e+00
    outer loop
      vertex 1.850000e+03 1.190000e+03 0.000000e+00
      vertex 1.650000e+03 1.190000e+03 3.000000e+03
      vertex 1.850000e+03 1.190000e+03 3.000000e+03
    endloop
  endfacet
  facet normal -1.000000e+00 0.000000e+00 0.000000e+00
    outer loop
      vertex 1.650000e+03 1.190000e+03 0.000000e+00
      vertex 1.650000e+03 7.400000e+02 0.000000e+00
      vertex 1.650000e+03 7.400000e+02 3.000000e+03
    endloop
  endfacet
  facet normal -1.000000e+00 0.000000e+00 0.000000e+00
    outer loop
      vertex 1.650000e+03 1.190000e+03 0.000000e+00
      vertex 1.650000e+03 7.400000e+02 3.000000e+03
      vertex 1.650000e+03 1.190000e+03 3.000000e+03
    endloop
  endfacet
  facet normal 0.000000e+00 -1.000000e+00 0.000000e+00
    outer loop
      vertex 1.650000e+03 7.400000e+02 0.000000e+00
      vertex 1.850000e+03 7.400000e+02 0.000000e+00
      vertex 1.850000e+03 7.400000e+02 3.000000e+03
    endloop
  endfacet
  facet normal 0.000000e+00 -1.000000e+00 0.000000e+00
    outer loop
      vertex 1.650000e+03 7.400000e+02 0.000000e+00
      vertex 1.850000e+03 7.400000e+02 3.000000e+03
      vertex 1.650000e+03 7.400000e+02 3.000000e+03
    endloop
  endfacet
  facet normal 1.000000e+00 0.000000e+00 0.000000e+00
    outer loop
      vertex 1.850000e+03 7.400000e+02 0.000000e+00
      vertex 1.850000e+03 1.190000e+03 0.000000e+00
      vertex 1.850000e+03 1.190000e+03 3.000000e+03
    endloop
  endfacet
  facet normal 1.000000e+00 0.000000e+00 0.000000e+00
    outer loop
      vertex 1.850000e+03 7.400000e+02 0.000000e+00
      vertex 1.850000e+03 1.190000e+03 3.000000e+03
      vertex 1.850000e+03 7.400000e+02 3.000000e+03
    endloop
  endfacet
  facet normal 0.000000e+00 0.000000e+00 -1.000000e+00
    outer loop
      vertex 1.036000e+04 3.360000e+03 0.000000e+00
      vertex 1.064000e+04 3.160000e+03 0.000000e+00
      vertex 1.036000e+04 3.160000e+03 0.000000e+00
    endloop
  endfacet
  facet normal 0.000000e+00 0.000000e+00 -1.000000e+00
    outer loop
      vertex 1.036000e+04 3.360000e+03 0.000000e+00
      vertex 1.064000e+04 3.360000e+03 0.000000e+00
      vertex 1.064000e+04 3.160000e+03 0.000000e+00
    endloop
  endfacet
  facet normal 0.000000e+00 0.000000e+00 1.000000e+00
    outer loop
      vertex 1.036000e+04 3.360000e+03 3.000000e+03
      vertex 1.036000e+04 3.160000e+03 3.000000e+03
      vertex 1.064000e+04 3.160000e+03 3.000000e+03
    endloop
  endfacet
  facet normal -0.000000e+00 0.000000e+00 1.000000e+00
    outer loop
      vertex 1.036000e+04 3.360000e+03 3.000000e+03
      vertex 1.064000e+04 3.160000e+03 3.000000e+03
      vertex 1.064000e+04 3.360000e+03 3.000000e+03
    endloop
  endfacet
  facet normal -1.000000e+00 0.000000e+00 0.000000e+00
    outer loop
      vertex 1.036000e+04 3.360000e+03 0.000000e+00
      vertex 1.036000e+04 3.160000e+03 0.000000e+00
      vertex 1.036000e+04 3.160000e+03 3.000000e+03
    endloop
  endfacet
  facet normal -1.000000e+00 0.000000e+00 0.000000e+00
    outer loop
      vertex 1.036000e+04 3.360000e+03 0.000000e+00
      vertex 1.036000e+04 3.160000e+03 3.000000e+03
      vertex 1.036000e+04 3.360000e+03 3.000000e+03
    endloop
  endfacet
  facet normal 0.000000e+00 -1.000000e+00 0.000000e+00
    outer loop
      vertex 1.036000e+04 3.160000e+03 0.000000e+00
      vertex 1.064000e+04 3.160000e+03 0.000000e+00
      vertex 1.064000e+04 3.160000e+03 3.000000e+03
    endloop
  endfacet
  facet normal 0.000000e+00 -1.000000e+00 0.000000e+00
    outer loop
      vertex 1.036000e+04 3.160000e+03 0.000000e+00
      vertex 1.064000e+04 3.160000e+03 3.000000e+03
      vertex 1.036000e+04 3.160000e+03 3.000000e+03
    endloop
  endfacet
  facet normal 1.000000e+00 0.000000e+00 0.000000e+00
    outer loop
      vertex 1.064000e+04 3.160000e+03 0.000000e+00
      vertex 1.064000e+04 3.360000e+03 0.000000e+00
      vertex 1.064000e+04 3.360000e+03 3.000000e+03
    endloop
  endfacet
  facet normal 1.000000e+00 0.000000e+00 0.000000e+00
    outer loop
      vertex 1.064000e+04 3.160000e+03 0.000000e+00
      vertex 1.064000e+04 3.360000e+03 3.000000e+03
      vertex 1.064000e+04 3.160000e+03 3.000000e+03
    endloop
  endfacet
  facet normal 0.000000e+00 1.000000e+00 0.000000e+00
    outer loop
      vertex 1.064000e+04 3.360000e+03 0.000000e+00
      vertex 1.036000e+04 3.360000e+03 0.000000e+00
      vertex 1.036000e+04 3.360000e+03 3.000000e+03
    endloop
  endfacet
  facet normal 0.000000e+00 1.000000e+00 -0.000000e+00
    outer loop
      vertex 1.064000e+04 3.360000e+03 0.000000e+00
      vertex 1.036000e+04 3.360000e+03 3.000000e+03
      vertex 1.064000e+04 3.360000e+03 3.000000e+03
    endloop
  endfacet
  facet normal 0.000000e+00 0.000000e+00 -1.000000e+00
    outer loop
      vertex 6.570000e+03 3.360000e+03 0.000000e+00
      vertex 6.820000e+03 3.160000e+03 0.000000e+00
      vertex 6.570000e+03 3.160000e+03 0.000000e+00
    endloop
  endfacet
  facet normal 0.000000e+00 0.000000e+00 -1.000000e+00
    outer loop
      vertex 6.570000e+03 3.360000e+03 0.000000e+00
      vertex 6.820000e+03 3.360000e+03 0.000000e+00
      vertex 6.820000e+03 3.160000e+03 0.000000e+00
    endloop
  endfacet
  facet normal 0.000000e+00 0.000000e+00 1.000000e+00
    outer loop
      vertex 6.570000e+03 3.360000e+03 3.000000e+03
      vertex 6.570000e+03 3.160000e+03 3.000000e+03
      vertex 6.820000e+03 3.160000e+03 3.000000e+03
    endloop
  endfacet
  facet normal -0.000000e+00 0.000000e+00 1.000000e+00
    outer loop
      vertex 6.570000e+03 3.360000e+03 3.000000e+03
      vertex 6.820000e+03 3.160000e+03 3.000000e+03
      vertex 6.820000e+03 3.360000e+03 3.000000e+03
    endloop
  endfacet
  facet normal -1.000000e+00 0.000000e+00 0.000000e+00
    outer loop
      vertex 6.570000e+03 3.360000e+03 0.000000e+00
      vertex 6.570000e+03 3.160000e+03 0.000000e+00
      vertex 6.570000e+03 3.160000e+03 3.000000e+03
    endloop
  endfacet
  facet normal -1.000000e+00 0.000000e+00 0.000000e+00
    outer loop
      vertex 6.570000e+03 3.360000e+03 0.000000e+00
      vertex 6.570000e+03 3.160000e+03 3.000000e+03
      vertex 6.570000e+03 3.360000e+03 3.000000e+03
    endloop
  endfacet
  facet normal 0.000000e+00 -1.000000e+00 0.000000e+00
    outer loop
      vertex 6.570000e+03 3.160000e+03 0.000000e+00
      vertex 6.820000e+03 3.160000e+03 0.000000e+00
      vertex 6.820000e+03 3.160000e+03 3.000000e+03
    endloop
  endfacet
  facet normal 0.000000e+00 -1.000000e+00 0.000000e+00
    outer loop
      vertex 6.570000e+03 3.160000e+03 0.000000e+00
      vertex 6.820000e+03 3.160000e+03 3.000000e+03
      vertex 6.570000e+03 3.160000e+03 3.000000e+03
    endloop
  endfacet
  facet normal 1.000000e+00 0.000000e+00 0.000000e+00
    outer loop
      vertex 6.820000e+03 3.160000e+03 0.000000e+00
      vertex 6.820000e+03 3.360000e+03 0.000000e+00
      vertex 6.820000e+03 3.360000e+03 3.000000e+03
    endloop
  endfacet
  facet normal 1.000000e+00 0.000000e+00 0.000000e+00
    outer loop
      vertex 6.820000e+03 3.160000e+03 0.000000e+00
      vertex 6.820000e+03 3.360000e+03 3.000000e+03
      vertex 6.820000e+03 3.160000e+03 3.000000e+03
    endloop
  endfacet
  facet normal 0.000000e+00 1.000000e+00 0.000000e+00
    outer loop
      vertex 6.820000e+03 3.360000e+03 0.000000e+00
      vertex 6.570000e+03 3.360000e+03 0.000000e+00
      vertex 6.570000e+03 3.360000e+03 3.000000e+03
    endloop
  endfacet
  facet normal 0.000000e+00 1.000000e+00 -0.000000e+00
    outer loop
      vertex 6.820000e+03 3.360000e+03 0.000000e+00
      vertex 6.570000e+03 3.360000e+03 3.000000e+03
      vertex 6.820000e+03 3.360000e+03 3.000000e+03
    endloop
  endfacet
  facet normal 0.000000e+00 0.000000e+00 -1.000000e+00
    outer loop
      vertex 0.000000e+00 0.000000e+00 -2.000000e+02
      vertex 1.248000e+04 8.320000e+03 -2.000000e+02
      vertex 1.248000e+04 0.000000e+00 -2.000000e+02
    endloop
  endfacet
  facet normal 0.000000e+00 0.000000e+00 -1.000000e+00
    outer loop
      vertex 0.000000e+00 0.000000e+00 -2.000000e+02
      vertex 0.000000e+00 8.320000e+03 -2.000000e+02
      vertex 1.248000e+04 8.320000e+03 -2.000000e+02
    endloop
  endfacet
  facet normal 0.000000e+00 0.000000e+00 1.000000e+00
    outer loop
      vertex 0.000000e+00 0.000000e+00 0.000000e+00
      vertex 1.248000e+04 0.000000e+00 0.000000e+00
      vertex 1.248000e+04 8.320000e+03 0.000000e+00
    endloop
  endfacet
  facet normal 0.000000e+00 0.000000e+00 1.000000e+00
    outer loop
      vertex 0.000000e+00 0.000000e+00 0.000000e+00
      vertex 1.248000e+04 8.320000e+03 0.000000e+00
      vertex 0.000000e+00 8.320000e+03 0.000000e+00
    endloop
  endfacet
  facet normal 0.000000e+00 -1.000000e+00 0.000000e+00
    outer loop
      vertex 0.000000e+00 0.000000e+00 -2.000000e+02
      vertex 1.248000e+04 0.000000e+00 -2.000000e+02
      vertex 1.248000e+04 0.000000e+00 0.000000e+00
    endloop
  endfacet
  facet normal 0.000000e+00 -1.000000e+00 0.000000e+00
    outer loop
      vertex 0.000000e+00 0.000000e+00 -2.000000e+02
      vertex 1.248000e+04 0.000000e+00 0.000000e+00
      vertex 0.000000e+00 0.000000e+00 0.000000e+00
    endloop
  endfacet
  facet normal 1.000000e+00 0.000000e+00 0.000000e+00
    outer loop
      vertex 1.248000e+04 0.000000e+00 -2.000000e+02
      vertex 1.248000e+04 8.320000e+03 -2.000000e+02
      vertex 1.248000e+04 8.320000e+03 0.000000e+00
    endloop
  endfacet
  facet normal 1.000000e+00 0.000000e+00 0.000000e+00
    outer loop
      vertex 1.248000e+04 0.000000e+00 -2.000000e+02
      vertex 1.248000e+04 8.320000e+03 0.000000e+00
      vertex 1.248000e+04 0.000000e+00 0.000000e+00
    endloop
  endfacet
  facet normal 0.000000e+00 1.000000e+00 0.000000e+00
    outer loop
      vertex 1.248000e+04 8.320000e+03 -2.000000e+02
      vertex 0.000000e+00 8.320000e+03 -2.000000e+02
      vertex 0.000000e+00 8.320000e+03 0.000000e+00
    endloop
  endfacet
  facet normal 0.000000e+00 1.000000e+00 -0.000000e+00
    outer loop
      vertex 1.248000e+04 8.320000e+03 -2.000000e+02
      vertex 0.000000e+00 8.320000e+03 0.000000e+00
      vertex 1.248000e+04 8.320000e+03 0.000000e+00
    endloop
  endfacet
  facet normal -1.000000e+00 0.000000e+00 0.000000e+00
    outer loop
      vertex 0.000000e+00 8.320000e+03 -2.000000e+02
      vertex 0.000000e+00 0.000000e+00 -2.000000e+02
      vertex 0.000000e+00 0.000000e+00 0.000000e+00
    endloop
  endfacet
  facet normal -1.000000e+00 0.000000e+00 0.000000e+00
    outer loop
      vertex 0.000000e+00 8.320000e+03 -2.000000e+02
      vertex 0.000000e+00 0.000000e+00 0.000000e+00
      vertex 0.000000e+00 8.320000e+03 0.000000e+00
    endloop
  endfacet
endsolid FloorPlan
